<svg width="28" height="26" viewBox="0 0 28 26" fill="none" xmlns="http://www.w3.org/2000/svg">
<g id="Group">
<path id="Vector" d="M5.66669 6.33325H24.0534C24.4259 6.33327 24.7943 6.41135 25.1349 6.56246C25.4754 6.71357 25.7805 6.93436 26.0305 7.2106C26.2805 7.48684 26.4698 7.8124 26.5863 8.16629C26.7027 8.52018 26.7438 8.89454 26.7067 9.26525L25.9067 17.2653C25.8409 17.9233 25.5329 18.5333 25.0426 18.9771C24.5523 19.4208 23.9146 19.6666 23.2534 19.6666H10.52C9.90332 19.6668 9.30559 19.4533 8.82861 19.0624C8.35164 18.6715 8.02489 18.1273 7.90402 17.5226L5.66669 6.33325Z" stroke="#FF902B" stroke-width="2" stroke-linejoin="round"/>
<path id="Vector_2" d="M20.3334 25H23M5.66669 6.33333L4.58669 2.00933C4.51446 1.721 4.34796 1.46508 4.11363 1.28221C3.8793 1.09934 3.59059 1.00001 3.29335 1H1.66669L5.66669 6.33333ZM9.66669 25H12.3334H9.66669Z" stroke="#FF902B" stroke-width="2" stroke-linecap="round" stroke-linejoin="round"/>
</g>
</svg>
